<svg version="1.1" id="Layer_1" xmlns="http://www.w3.org/2000/svg" xmlns:xlink="http://www.w3.org/1999/xlink" x="0px" y="0px"
	 width="43px" height="41px" viewBox="0 0 43 41" enable-background="new 0 0 43 41" xml:space="preserve">
	<path fill="#8D81AC" d="M43,21c0-0.4-0.1-0.8-0.4-1l-3.8-3.8l0-8.7c0-0.1,0-0.1-0.1-0.2c0,0,0-0.1,0-0.1c0,0,0-0.1,0-0.1
		c0-0.1,0-0.1,0-0.1c0,0,0-0.1,0-0.1c0-0.1,0-0.1-0.1-0.1l0-0.1c0-0.1-0.1-0.1-0.1-0.1c0,0,0,0-0.1-0.1c0,0-0.1-0.1-0.2-0.1
		c0,0-0.1,0-0.1-0.1l-0.1,0c0,0-0.1,0-0.1-0.1C37.9,6,37.7,6,37.6,6l-0.1,0l-3.1,0c-0.4,0-0.7,0.1-0.9,0.4C33.2,6.6,33,7,33,7.3
		c0,0.7,0.6,1.3,1.3,1.3h1.8l0,8c0,0.1,0,0.2,0,0.3c0.1,0.4,0.3,0.7,0.6,1l0.2,0.1l2.9,2.9l-3.2,3.2c-0.2,0.1-0.3,0.3-0.4,0.5
		c0,0.1,0,0.1-0.1,0.2l0,0.1c0,0.1,0,0.2,0,0.4l0,8.1h-1.8c-0.7,0-1.3,0.6-1.3,1.3c0,0.4,0.1,0.7,0.4,0.9c0.2,0.2,0.6,0.4,0.9,0.4
		l3.1,0c0.2,0,0.3,0,0.5-0.1l0.2-0.1c0,0,0.1,0,0.1,0c0,0,0.1-0.1,0.2-0.1l0.1-0.1c0,0,0.1-0.1,0.1-0.2l0,0c0-0.1,0.1-0.1,0.1-0.2
		l0-0.1c0,0,0-0.1,0-0.1c0,0,0-0.1,0-0.1c0,0,0-0.1,0-0.1c0,0,0,0,0,0c0-0.1,0-0.2,0.1-0.2l0-8.8l3.8-3.8C42.9,21.7,43,21.4,43,21z"
		/>
	<path fill="#8D81AC" d="M28.5,1.1c-0.2-0.1-0.4-0.3-0.6-0.3l-0.1,0L19.3,0c0,0,0,0-0.1,0c0,0,0,0-0.1,0c-0.1,0-0.1,0-0.2,0.1
		c-0.1,0-0.1,0-0.1,0c0,0,0,0-0.1,0l-0.2,0.1c-0.1,0-0.1,0.1-0.2,0.1l-0.1,0c0,0-0.1,0.1-0.1,0.1l0,0c0,0-0.1,0.1-0.1,0.2l0,0.1
		c0,0.1,0,0.1-0.1,0.1c0,0,0,0.1,0,0.1c0,0,0,0,0,0l0,0.1c0,0,0,0.1,0,0.1L15,34.8c-0.1,0.4,0,0.7,0.3,1l3.9,4.7c0,0,0,0,0,0.1
		c0.2,0.3,0.6,0.5,1,0.5l0,0c0.3,0,0.6-0.1,0.8-0.3l4.7-4c0,0,0.1-0.1,0.2-0.2l0,0c0.2-0.2,0.2-0.5,0.3-0.7l2.3-26l0-0.1
		c0-0.1,0-0.2,0-0.2c0-0.1,0-0.1,0-0.2l0-0.1l0.6-7C29,1.8,28.9,1.4,28.5,1.1z M23.6,34.3l-6-0.5L19.7,10l6,0.5L23.6,34.3z M25.9,8
		l-6-0.5l0.4-4.7l6,0.5L25.9,8z"/>
	<path fill="#8D81AC" d="M0,21c0-0.4,0.1-0.8,0.4-1l3.8-3.8l0-8.7c0-0.1,0-0.1,0.1-0.2c0,0,0-0.1,0-0.1c0,0,0-0.1,0-0.1
		c0-0.1,0-0.1,0-0.1c0,0,0-0.1,0-0.1c0-0.1,0-0.1,0.1-0.1l0-0.1c0-0.1,0.1-0.1,0.1-0.1c0,0,0,0,0.1-0.1c0,0,0.1-0.1,0.2-0.1
		c0,0,0.1,0,0.1-0.1l0.1,0c0,0,0.1,0,0.1-0.1C5.1,6,5.3,6,5.5,6l0.1,0l3.1,0C9,6,9.3,6.1,9.6,6.4C9.9,6.6,10,7,10,7.3
		c0,0.7-0.6,1.3-1.3,1.3H6.8l0,8c0,0.1,0,0.2,0,0.3c-0.1,0.4-0.3,0.7-0.6,1L6.1,18l-2.9,2.9l3.2,3.2c0.2,0.1,0.3,0.3,0.4,0.5
		c0,0.1,0,0.1,0.1,0.2l0,0.1c0,0.1,0,0.2,0,0.4l0,8.1h1.8c0.7,0,1.3,0.6,1.3,1.3c0,0.4-0.1,0.7-0.4,0.9C9.4,35.9,9,36,8.7,36l-3.1,0
		c-0.2,0-0.3,0-0.5-0.1l-0.2-0.1c0,0-0.1,0-0.1,0c0,0-0.1-0.1-0.2-0.1l-0.1-0.1c0,0-0.1-0.1-0.1-0.2l0,0c0-0.1-0.1-0.1-0.1-0.2
		l0-0.1c0,0,0-0.1,0-0.1c0,0,0-0.1,0-0.1c0,0,0-0.1,0-0.1c0,0,0,0,0,0c0-0.1,0-0.2-0.1-0.2l0-8.8L0.4,22C0.1,21.7,0,21.4,0,21z"/>
</svg>
